<svg xmlns="http://www.w3.org/2000/svg" width="124" height="22" viewBox="0 0 124 22" fill="none">
  <path d="M12.6346 21.806L2.0707 11.6403C-0.694433 8.97941 -0.688127 4.65889 2.077 1.99952C4.84213 -0.661361 9.32561 -0.661361 12.0892 1.99952L18.9421 8.59408L19.486 8.0707C20.2048 7.37893 20.2048 6.25633 19.486 5.56456L14.6509 0.911806C17.3577 -0.590061 20.8859 -0.236592 23.2017 1.99042C25.9668 4.6513 25.9637 8.98092 23.1986 11.6403L12.6346 21.806ZM15.239 12.1591L8.38604 5.56456C7.66717 4.87279 6.50058 4.87279 5.78171 5.56456C5.06284 6.25633 5.06284 7.37893 5.78171 8.0707L12.6346 14.6653L15.239 12.1591Z" fill="#9631D8"/>
  <path d="M106.526 3.75168C103.397 3.75168 100.744 5.37036 99.4398 7.68839V3.80629H95.0036V21.6952H99.4398V14.8488C99.4398 11.079 102.609 8.02214 106.526 8.02214V3.7532V3.75168ZM122.007 20.7698H121.681V20.6348H122.504V20.7698H122.179V21.6952H122.005V20.7698H122.007ZM122.726 20.6348H122.932L123.308 21.4692L123.678 20.6348H123.883V21.6952H123.71V20.9443L123.372 21.6952H123.237L122.898 20.9443V21.6952H122.724V20.6348H122.726ZM58.007 3.75168C54.8777 3.75168 52.2245 5.37036 50.9208 7.68839V3.80629H46.4846V21.6952H50.9208V14.8488C50.9208 11.079 54.0895 8.02214 58.007 8.02214V3.7532V3.75168ZM32.5328 8.02062C33.2186 5.56151 35.4682 3.75168 38.2396 3.75168C41.5502 3.75168 44.2744 6.3352 44.2744 9.52097V21.6952H31.6232C28.3126 21.6952 25.6279 19.1041 25.6279 15.9183C25.6279 12.7325 28.3126 10.149 31.6232 10.149H39.8287V9.52249C39.8287 8.69419 39.1004 8.02214 38.2396 8.02214H32.5328V8.02062ZM31.6894 14.4453C30.8334 14.4453 30.1382 15.1128 30.1382 15.938C30.1382 16.7633 30.8318 17.4338 31.6894 17.4338H39.8287V14.4453H31.6894ZM108.9 8.02214C109.586 5.56151 111.836 3.75168 114.607 3.75168C117.918 3.75168 120.642 6.3352 120.642 9.52097V21.6952H107.991C104.68 21.6952 101.995 19.1041 101.995 15.9183C101.995 12.7325 104.68 10.149 107.991 10.149H116.196V9.52249C116.196 8.69419 115.468 8.02214 114.607 8.02214H108.9ZM108.057 14.4453C107.201 14.4453 106.506 15.1128 106.506 15.938C106.506 16.7633 107.199 17.4338 108.057 17.4338H116.196V14.4453H108.057ZM93.0709 12.2076C93.0709 7.52152 89.4465 3.75168 83.8958 3.75168C78.345 3.75168 74.2289 7.5018 74.2289 12.8827C74.2289 18.2637 78.1937 21.8044 83.858 21.8044C88.1964 21.8044 91.3068 19.6897 92.5569 16.6875H87.7124C86.847 17.5082 85.4423 17.8404 83.8517 17.8404C81.3482 17.8404 79.1853 16.8741 78.6808 14.4453H92.8959L92.9416 14.1616H92.9495C92.9889 13.8764 93.0709 13.1315 93.0709 12.2076ZM83.7602 7.67474C86.2006 7.67474 88.0514 8.79886 88.5085 10.7043H78.818C79.4218 8.69722 81.4097 7.67474 83.7602 7.67474ZM71.4291 16.6875C71.0413 17.1426 70.4201 17.4338 69.6287 17.4338C68.2604 17.4338 67.3161 16.5615 67.3161 15.2796V8.02214H73.294V3.7532H67.3161V4.95911e-05H62.8121V3.7532H60.2188V8.02214H62.8121V15.4359C62.8121 19.2285 65.6103 21.8059 69.654 21.8059C71.8342 21.8059 73.5794 21.058 74.7334 19.8672L71.4306 16.689L71.4291 16.6875Z" fill="black"/>
</svg>