<svg width="521" height="69" viewBox="0 0 521 69" fill="none" xmlns="http://www.w3.org/2000/svg">
<g clip-path="url(#clip0_75_1725)">
<path d="M506.43 66.68H507.82V60.1H510.21V58.89H504.05V60.1H506.44V66.68H506.43ZM511.82 66.68H513.14V60.42H513.16L515.49 66.68H516.46L518.82 60.42H518.84V66.68H520.22V58.89H518.04L516.04 64.42H516.01L513.99 58.89H511.82V66.68Z" fill="#008600"/>
<path d="M41.68 26.81C38.07 22.33 31.12 19.67 24.45 19.67C11.05 19.67 0 29 0 43.85C0 58.7 11.24 68.02 24.75 68.02C31.51 68.02 37.79 65.73 41.6 61.65L34.46 54.41C32.27 57.07 28.36 58.51 24.84 58.51C16.17 58.51 11.9 50.99 11.9 43.85C11.9 36.71 16.08 29.19 24.45 29.19C28.17 29.19 32.05 31.1 33.88 33.67L41.68 26.81Z" fill="#008600"/>
<path d="M47.2402 66.68H58.6702V42.23C58.6702 38.89 60.6702 29.95 70.9502 29.95C71.9902 29.95 72.9502 30.04 74.4802 30.42V19.95C73.7202 19.76 72.5702 19.67 71.7202 19.67C65.7302 19.67 60.8602 23.39 58.4002 28.61H58.2102V21H47.2702V66.69L47.2502 66.67L47.2402 66.68Z" fill="#008600"/>
<path d="M88.0499 39.28C88.5199 32.91 93.9599 28.23 100.71 28.23C108.12 28.23 111.46 33.37 111.46 39.28H88.0499ZM122.89 44.42C122.89 27.96 113.56 19.67 100.82 19.67C87.0099 19.67 76.6499 29.38 76.6499 44.12C76.6499 58.86 87.1199 68.02 101.21 68.02C109.88 68.02 116.33 64.98 120.82 58.89L113.22 52.79C110.65 56.4 106.85 58.7 101.13 58.7C94.4599 58.7 88.5799 53.94 88.0899 47.46H122.82C122.9 46.42 122.9 45.46 122.9 44.42H122.89Z" fill="#008600"/>
<path d="M177.68 0H166.25V26.81H165.97C163.59 23.86 159.02 19.67 150.65 19.67C137.61 19.67 128.47 30.14 128.47 43.65C128.47 57.16 137.03 68.02 150.92 68.02C157.29 68.02 163.47 65.07 166.62 59.84H166.81V66.7H177.66V0H177.68ZM140.08 43.65C140.08 36.51 144.37 28.99 153.21 28.99C161.58 28.99 166.64 36.7 166.64 43.84C166.64 50.98 161.6 58.5 153.21 58.5C144.35 58.5 140.08 50.79 140.08 43.65Z" fill="#008600"/>
<path d="M189.04 66.68H200.47V21.01H189.04V66.7V66.68ZM187.43 6.92C187.43 10.53 190.47 13.78 194.67 13.78C198.87 13.78 202.08 10.83 202.08 6.92C202.08 3.01 198.85 0.0599976 194.67 0.0599976C190.49 0.0599976 187.43 3.29 187.43 6.92Z" fill="#008600"/>
<path d="M216.57 30.14V51.47C216.57 60.22 219.33 67.66 231.42 67.66C233.99 67.66 237.03 67.19 239.02 66.43L238.64 57.49C237.3 58.15 235.3 58.45 233.78 58.45C228.74 58.45 227.79 55.5 227.79 51.4V30.18H239.22V21.05H227.79V7.77H216.55V21H208.56V30.13H216.57V30.14Z" fill="#008600"/>
<path d="M247.84 66.68H259.27V43.27H259.55L277.63 66.68H292.75L271.72 41.66L291.52 21.01H276.86L259.55 40.23H259.27V0H247.84V66.68Z" fill="#008600"/>
<path d="M324.91 66.68H335.57V38.89C335.57 29.76 331.58 19.67 315.2 19.67C308.25 19.67 301.01 22.16 295.87 26.91L301.78 33.86C304.73 30.91 309.38 28.63 314.25 28.63C319.96 28.63 324.72 31.39 324.72 37V38.15C310.45 38.15 293.3 40.06 293.3 53.66C293.3 64.32 303.11 67.85 310.44 67.85C316.92 67.85 322.34 64.9 324.63 60.9H324.91V66.7V66.68ZM324.72 47.46C324.72 54.7 320.54 59.16 312.72 59.16C308.81 59.16 304.73 57.82 304.73 53.45C304.73 46.69 314.91 45.85 322.15 45.85H324.72V47.46Z" fill="#008600"/>
<path d="M345.22 66.68H356.65V42.23C356.65 38.89 358.65 29.95 368.93 29.95C369.97 29.95 370.93 30.04 372.46 30.42V19.95C371.69 19.76 370.55 19.67 369.7 19.67C363.71 19.67 358.84 23.39 356.38 28.61H356.19V21H345.25V66.69L345.23 66.67H345.22V66.68Z" fill="#008600"/>
<path d="M434.76 19.67C427.9 19.67 422.76 22.81 419.72 28.34C417.15 23.2 412.5 19.67 405.44 19.67C398.38 19.67 393.27 23.85 391.25 28.34H391.06V21.01H380.2V66.7H391.63V41.57C391.63 35.47 394.77 29.21 401.61 29.21C407.41 29.21 410.09 33.5 410.09 39.11V66.7H421.52V41.76C421.52 35.85 424.47 29.21 431.61 29.21C438.75 29.21 440.17 35.97 440.17 41.4V66.72H451.6V38.17C451.6 28.84 446.65 19.71 434.75 19.71V19.67H434.76Z" fill="#008600"/>
<path d="M489.29 66.68H499.95V38.89C499.95 29.76 495.96 19.67 479.58 19.67C472.63 19.67 465.39 22.16 460.25 26.91L466.16 33.86C469.11 30.91 473.76 28.63 478.63 28.63C484.34 28.63 489.1 31.39 489.1 37V38.15C474.83 38.15 457.68 40.06 457.68 53.66C457.68 64.32 467.47 67.85 474.8 67.85C481.28 67.85 486.7 64.9 488.99 60.9H489.27V66.7L489.29 66.68ZM489.1 47.46C489.1 54.7 484.92 59.16 477.1 59.16C473.19 59.16 469.11 57.82 469.11 53.45C469.11 46.69 479.29 45.85 486.53 45.85H489.1V47.46Z" fill="#008600"/>
</g>
<defs>
<clipPath id="clip0_75_1725">
<rect width="520.23" height="68.02" fill="white"/>
</clipPath>
</defs>
</svg>
