<svg xmlns="http://www.w3.org/2000/svg" viewBox="0 0 127 50" width="127" height="50" role="img" aria-labelledby="title">
  <title id="title">Epoch Design</title>
  <g fill="#001A37">
    <path id="epoch" d="M0 0.6H17.33V5.44H5.62V9.88H16.68V14.72H5.62V19.56H17.98V24.4H0ZM22.48 0.6H31.96Q33.94 0.6 35.71 0.94Q37.47 1.28 38.79 2.1Q40.1 2.92 40.88 4.32Q41.65 5.71 41.65 7.83Q41.65 9.91 40.93 11.32Q40.21 12.74 38.95 13.58Q37.69 14.42 35.96 14.77Q34.23 15.12 32.21 15.12H28.1V24.4H22.48ZM28.1 10.69H31.85Q32.61 10.69 33.31 10.55Q34.01 10.42 34.57 10.1Q35.13 9.78 35.47 9.22Q35.81 8.67 35.81 7.83Q35.81 6.92 35.36 6.37Q34.91 5.81 34.21 5.51Q33.51 5.21 32.64 5.12Q31.78 5.04 30.99 5.04H28.1ZM43.81 12.5Q43.81 9.64 44.84 7.33Q45.87 5.01 47.7 3.38Q49.54 1.75 52.06 0.87Q54.59 0 57.58 0Q60.57 0 63.09 0.87Q65.61 1.75 67.45 3.38Q69.29 5.01 70.31 7.33Q71.34 9.64 71.34 12.5Q71.34 15.36 70.31 17.67Q69.29 19.99 67.45 21.62Q65.61 23.25 63.09 24.13Q60.57 25 57.58 25Q54.59 25 52.06 24.13Q49.54 23.25 47.7 21.62Q45.87 19.99 44.84 17.67Q43.81 15.36 43.81 12.5ZM49.65 12.5Q49.65 14.18 50.21 15.57Q50.77 16.97 51.81 17.99Q52.86 19.02 54.32 19.59Q55.78 20.16 57.58 20.16Q59.38 20.16 60.84 19.59Q62.3 19.02 63.34 17.99Q64.39 16.97 64.95 15.57Q65.5 14.18 65.5 12.5Q65.5 10.85 64.95 9.44Q64.39 8.03 63.34 7.01Q62.3 5.98 60.84 5.41Q59.38 4.84 57.58 4.84Q55.78 4.84 54.32 5.41Q52.86 5.98 51.81 7.01Q50.77 8.03 50.21 9.44Q49.65 10.85 49.65 12.5ZM91.84 6.79Q91.01 5.85 89.81 5.34Q88.6 4.84 87.01 4.84Q85.43 4.84 84.08 5.41Q82.73 5.98 81.74 7.01Q80.74 8.03 80.19 9.44Q79.63 10.85 79.63 12.5Q79.63 14.18 80.19 15.57Q80.74 16.97 81.72 17.99Q82.69 19.02 84.01 19.59Q85.32 20.16 86.83 20.16Q88.56 20.16 89.9 19.49Q91.23 18.82 92.09 17.61L96.78 20.87Q95.16 22.98 92.67 23.99Q90.18 25 87.55 25Q84.56 25 82.04 24.13Q79.52 23.25 77.68 21.62Q75.84 19.99 74.82 17.67Q73.79 15.36 73.79 12.5Q73.79 9.64 74.82 7.33Q75.84 5.01 77.68 3.38Q79.52 1.75 82.04 0.87Q84.56 0 87.55 0Q88.64 0 89.81 0.18Q90.98 0.37 92.11 0.77Q93.25 1.18 94.29 1.85Q95.34 2.52 96.17 3.49ZM99.84 0.6H105.46V9.48H116.38V0.6H122V24.4H116.38V14.11H105.46V24.4H99.84Z"/>
    <path id="design" d="M0 27.56H7.7Q10.5 27.56 13.01 28.14Q15.53 28.73 17.41 30.05Q19.28 31.36 20.38 33.46Q21.48 35.56 21.48 38.56Q21.48 41.22 20.42 43.25Q19.35 45.27 17.54 46.65Q15.73 48.02 13.36 48.73Q10.99 49.44 8.39 49.44H0ZM5.13 44.99H7.8Q9.57 44.99 11.1 44.65Q12.63 44.31 13.75 43.52Q14.87 42.74 15.51 41.45Q16.15 40.17 16.15 38.31Q16.15 36.71 15.51 35.52Q14.87 34.33 13.79 33.55Q12.7 32.78 11.24 32.39Q9.77 32.01 8.16 32.01H5.13ZM25.17 27.56H41V32.01H30.3V36.09H40.4V40.54H30.3V44.99H41.59V49.44H25.17ZM57.22 32.9Q56.59 32.16 55.52 31.81Q54.45 31.45 53.5 31.45Q52.94 31.45 52.35 31.58Q51.75 31.7 51.23 31.96Q50.7 32.22 50.37 32.66Q50.04 33.09 50.04 33.71Q50.04 34.7 50.83 35.22Q51.62 35.75 52.82 36.12Q54.02 36.49 55.41 36.86Q56.79 37.23 57.99 37.91Q59.19 38.59 59.98 39.74Q60.77 40.88 60.77 42.8Q60.77 44.62 60.05 45.98Q59.32 47.34 58.09 48.24Q56.85 49.13 55.23 49.57Q53.6 50 51.79 50Q49.52 50 47.58 49.35Q45.63 48.7 43.96 47.25L47.61 43.48Q48.4 44.47 49.6 45.01Q50.8 45.55 52.08 45.55Q52.71 45.55 53.35 45.41Q53.99 45.27 54.5 44.99Q55.01 44.71 55.32 44.28Q55.64 43.85 55.64 43.26Q55.64 42.27 54.83 41.7Q54.02 41.13 52.81 40.73Q51.59 40.32 50.18 39.92Q48.76 39.52 47.54 38.84Q46.33 38.16 45.52 37.05Q44.71 35.93 44.71 34.11Q44.71 32.35 45.45 31.02Q46.19 29.69 47.43 28.79Q48.66 27.9 50.27 27.45Q51.89 27 53.6 27Q55.57 27 57.41 27.53Q59.26 28.05 60.74 29.29ZM64.52 27.56H69.65V49.44H64.52ZM95.42 47.9Q93.15 49.01 90.68 49.51Q88.21 50 85.64 50Q82.91 50 80.61 49.2Q78.31 48.39 76.63 46.89Q74.95 45.39 74.01 43.26Q73.07 41.13 73.07 38.5Q73.07 35.87 74.01 33.74Q74.95 31.61 76.63 30.11Q78.31 28.61 80.61 27.8Q82.91 27 85.64 27Q88.44 27 90.79 27.63Q93.15 28.27 94.92 29.81L91.3 33.52Q90.25 32.5 88.93 31.98Q87.62 31.45 85.64 31.45Q84 31.45 82.67 31.98Q81.33 32.5 80.38 33.45Q79.43 34.39 78.92 35.69Q78.41 36.99 78.41 38.5Q78.41 40.05 78.92 41.33Q79.43 42.61 80.38 43.55Q81.33 44.5 82.67 45.02Q84 45.55 85.64 45.55Q87.32 45.55 88.54 45.19Q89.76 44.84 90.48 44.47V40.91H86.3V36.46H95.42ZM99.92 27.56H106.9L116.8 42.77H116.87V27.56H122V49.44H115.29L105.12 33.86H105.06V49.44H99.92Z"/>
  </g>
</svg>
