<svg xmlns="http://www.w3.org/2000/svg" width="920" height="300" viewBox="0 0 920 300" role="img" aria-label="JUICE Pharma logo">
  <path fill="#e54835" fill-rule="evenodd" d="M 513.235 269.75 L 513.5 239.5 L 530 239.509 C 545.583 239.518 546.775 239.657 551.449 242.009 C 554.171 243.379 557.771 246.229 559.449 248.342 C 562.212 251.821 562.534 252.985 562.856 260.671 C 563.602 278.47 556.526 285.839 538.039 286.516 L 529.5 286.828 L 529.204 293.414 L 528.909 300 L 520.94 300 L 512.971 300 L 513.235 269.75 Z M 569.235 269.75 L 569.5 239.5 L 577.5 239.5 L 585.5 239.5 L 585.78 252.25 L 586.06 265 L 595 265 L 603.94 265 L 604.22 252.25 L 604.5 239.5 L 612.5 239.5 L 620.5 239.5 L 620.765 269.75 L 621.029 300 L 612.515 300 L 604 300 L 604 290.5 L 604 281 L 595 281 L 586 281 L 586 290.5 L 586 300 L 577.485 300 L 568.971 300 L 569.235 269.75 Z M 627 299.154 C 627 298.333 634.397 275.009 643.155 248.211 L 646.191 238.922 L 654.345 239.211 L 662.5 239.5 L 672.166 268.5 C 677.482 284.45 681.87 298.081 681.916 298.79 C 681.98 299.769 680.004 300.011 673.75 299.79 C 666.058 299.52 665.478 299.348 665.18 297.25 C 664.873 295.082 664.483 295 654.5 295 C 644.517 295 644.127 295.082 643.82 297.25 C 643.522 299.348 642.942 299.52 635.25 299.79 C 630.642 299.953 627 299.672 627 299.154 Z M 688.235 269.75 L 688.5 239.5 L 705 239.541 C 722.288 239.585 726.635 240.352 731.563 244.228 C 737.81 249.142 740.016 262.129 735.955 270.089 C 734.83 272.293 733.255 274.349 732.455 274.656 C 730.792 275.294 730.464 278 732.049 278 C 734.241 278 736.956 286.399 736.978 293.25 L 737 300 L 728.5 300 L 720 300 L 720 294.223 C 720 285.786 718.418 284 710.943 284 L 705 284 L 705 292 L 705 300 L 696.485 300 L 687.971 300 L 688.235 269.75 Z M 745.235 269.75 L 745.5 239.5 L 752.632 239.209 L 759.765 238.917 L 767.132 250.927 C 771.185 257.532 774.725 262.936 775 262.936 C 775.275 262.936 778.815 257.532 782.868 250.927 L 790.235 238.917 L 797.368 239.209 L 804.5 239.5 L 804.765 269.75 L 805.029 300 L 797.015 300 L 789 300 L 789 284.5 C 789 275.975 788.663 269.006 788.25 269.014 C 787.837 269.022 785.025 272.841 782 277.5 C 778.783 282.455 775.814 285.978 774.846 285.986 C 773.866 285.994 771.104 282.744 768.061 278 C 765.238 273.6 762.495 270 761.965 270 C 761.388 270 761 276.035 761 285 L 761 300 L 752.985 300 L 744.971 300 L 745.235 269.75 Z M 811 298.822 C 811 298.174 815.296 284.431 820.546 268.282 L 830.091 238.921 L 838.295 239.21 L 846.499 239.5 L 856.236 269 C 861.592 285.225 865.98 298.837 865.987 299.25 C 865.994 299.663 862.389 300 857.975 300 C 850.336 300 849.905 299.88 849 297.5 C 848.074 295.065 847.79 295 838.133 295 C 828.39 295 828.206 295.044 827.589 297.5 C 826.986 299.905 826.66 300 818.981 300 C 813.522 300 811 299.628 811 298.822 Z M 659.41 278.497 C 657.672 271.571 655.146 264.549 654.29 264.263 C 653.529 264.01 649 277.798 649 280.37 C 649 280.717 651.484 281 654.519 281 C 659.909 281 660.023 280.941 659.41 278.497 Z M 843.749 279.75 C 843.493 279.062 842.254 275.012 840.996 270.75 C 839.738 266.488 838.428 263 838.085 263 C 837.516 263 832.927 278.502 832.978 280.25 C 832.99 280.663 835.523 281 838.607 281 C 842.674 281 844.086 280.657 843.749 279.75 Z M 543.988 270.211 C 547.309 267.522 547.862 260.345 545.025 256.75 C 543.031 254.223 542.292 254 535.927 254 L 529 254 L 529 263 L 529 272 L 535.389 272 C 540.038 272 542.38 271.513 543.988 270.211 Z M 718.777 267.443 C 720.498 266.238 721 264.899 721 261.515 C 721 255.345 719.287 254 711.429 254 L 705 254 L 705 261.5 L 705 269 L 710.777 269 C 714.388 269 717.389 268.416 718.777 267.443 Z M 778.5 207.882 C 768.081 207.096 755.274 203.865 745.573 199.575 C 730.401 192.865 712.186 177.679 703.05 164.123 C 696.793 154.837 690.381 140.679 687.796 130.44 C 685.935 123.068 685.539 118.781 685.539 106 C 685.539 87.221 687.575 77.734 694.875 62.507 C 707.562 36.043 730.03 16.557 757.717 8.006 C 763.435 6.24 767.013 6 787.679 6 C 810.062 6 811.492 6.116 818.598 8.501 C 852.536 19.894 878.022 46.978 886.591 80.759 C 888.652 88.883 889 92.624 889 106.628 L 889 123 L 816.5 123 C 776.625 123 744.004 123.338 744.009 123.75 C 744.036 125.852 750.374 135.106 754.842 139.565 C 770.439 155.135 794.981 157.317 813.68 144.799 L 817.86 142 L 850.498 142 L 883.135 142 L 882.466 144.25 C 881.089 148.885 873.659 161.749 868.313 168.758 C 852.422 189.588 824.554 205.454 800.226 207.521 C 796.527 207.835 792.375 208.215 791 208.364 C 789.625 208.514 784 208.297 778.5 207.882 Z M 93.5 207.076 C 78.767 204.678 63.617 198.548 52.656 190.549 C 45.309 185.187 41 181.394 41 180.288 C 41 179.844 49.551 170.938 60.003 160.497 C 74.413 146.102 79.332 141.754 80.353 142.507 C 90.836 150.233 97.278 152.415 107.805 151.805 C 124.817 150.82 138.098 139.539 141.961 122.791 C 142.55 120.238 142.961 95.716 142.976 62.25 L 143 6 L 170.5 6 L 198 6 L 198 66.042 C 198 131.863 197.874 133.578 191.9 149.093 C 185.823 164.874 170.556 183.552 156.257 192.698 C 147.715 198.163 137.069 202.772 127.818 205.011 C 118.505 207.265 101.1 208.312 93.5 207.076 Z M 302 206.902 C 272.021 202.373 244.312 181.435 231.447 153.592 C 229.63 149.659 227.115 142.854 225.858 138.47 C 223.607 130.617 223.569 129.587 223.238 68.25 L 222.902 6 L 250.928 6 L 278.954 6 L 279.227 65.75 L 279.5 125.5 L 282.318 131.239 C 285.909 138.552 292.448 145.091 299.761 148.682 C 304.894 151.202 306.556 151.5 315.5 151.5 C 324.248 151.5 326.213 151.166 331.196 148.83 C 341.893 143.816 349.69 133.539 351.911 121.526 C 352.612 117.734 353 96.088 353 60.816 L 353 6 L 380.549 6 L 408.097 6 L 407.775 68.75 L 407.453 131.5 L 404.676 140.438 C 394.359 173.651 368.74 197.895 335.962 205.467 C 326.907 207.558 310.837 208.238 302 206.902 Z M 596.5 206.554 C 569.781 202.386 545.908 187.718 528.917 165.031 C 523.262 157.479 515.543 141.187 512.794 131 C 510.809 123.646 510.502 120.14 510.515 105 C 510.528 89.821 510.831 86.454 512.799 79.616 C 517.556 63.083 525.837 48.037 536.918 35.793 C 547.118 24.523 565.111 12.992 580.183 8.066 C 586.504 6 588.344 5.898 614.183 6.191 L 641.5 6.5 L 651.08 10.56 C 656.349 12.793 663.788 16.7 667.611 19.242 C 675.559 24.525 684 31.697 684 33.166 C 684 34.26 646.665 72 645.583 72 C 645.214 72 643.695 70.855 642.206 69.455 C 640.718 68.055 636.343 65.339 632.485 63.419 C 614.999 54.717 593.082 58.32 579.185 72.181 C 560.675 90.644 560.696 119.922 579.233 138.397 C 589.394 148.525 600.525 152.635 615.409 151.757 C 625.072 151.186 632.504 148.534 639.633 143.112 L 644.765 139.208 L 664.349 158.792 C 679.24 173.683 683.679 178.682 682.872 179.655 C 680.404 182.628 666.94 192.146 660 195.824 C 640.621 206.093 618.024 209.912 596.5 206.554 Z M 433 106 L 433 6 L 460.5 6 L 488 6 L 488 106 L 488 206 L 460.5 206 L 433 206 L 433 106 Z M 830 87.452 C 830 84.885 823.621 75.782 818.587 71.165 C 812.637 65.708 803.112 61.209 794.485 59.779 C 780.915 57.53 765.835 62.32 755.373 72.201 C 750.527 76.779 744.038 85.943 744.009 88.25 C 744.004 88.662 763.35 89 787 89 C 825.149 89 830 88.825 830 87.452 Z"/>
</svg>
