<svg xmlns="http://www.w3.org/2000/svg" xmlns:xlink="http://www.w3.org/1999/xlink" id="Layer_1" data-name="Layer 1" width="146" height="26.707" viewBox="0 0 1020.34 186.95">
  <defs>
    <linearGradient id="linear-gradient" x1="193.19" y1="130.55" x2="967.23" y2="130.55" gradientTransform="matrix(1, 0, 0, -1, 0, 189.81)" gradientUnits="userSpaceOnUse">
      <stop offset="0" stop-color="#2b5f51"/>
      <stop offset="0.8" stop-color="#0bbab4"/>
    </linearGradient>
    <linearGradient id="linear-gradient-2" x1="78.67" y1="128" x2="154.68" y2="22.02" gradientTransform="matrix(1, 0, 0, -1, 0, 189.81)" gradientUnits="userSpaceOnUse">
      <stop offset="0.09" stop-color="#0bbab4"/>
      <stop offset="0.37" stop-color="#538ca6"/>
      <stop offset="0.54" stop-color="#7c719e"/>
      <stop offset="0.72" stop-color="#a15998"/>
      <stop offset="0.9" stop-color="#c24393"/>
      <stop offset="1" stop-color="#cf3b91"/>
    </linearGradient>
    <linearGradient id="linear-gradient-3" x1="44.01" y1="80.34" x2="146.18" y2="184.14" gradientTransform="matrix(1, 0, 0, -1, 0, 189.81)" gradientUnits="userSpaceOnUse">
      <stop offset="0.46" stop-color="#0bbab4"/>
      <stop offset="0.65" stop-color="#10aca6"/>
      <stop offset="1" stop-color="#1c8880"/>
      <stop offset="1" stop-color="#1c8880"/>
    </linearGradient>
    <linearGradient id="linear-gradient-4" x1="128.34" y1="47.55" x2="-64.55" y2="129.28" gradientTransform="matrix(1, 0, 0, -1, 0, 189.81)" gradientUnits="userSpaceOnUse">
      <stop offset="0.36" stop-color="#cf3b91"/>
      <stop offset="0.95" stop-color="#936"/>
    </linearGradient>
  </defs>
  <g>
    <g>
      <path d="M250.64,179.8h-21.5v-62H250c13,0,19.3,6.9,19.3,15.6,0,8.2-5.1,12.7-11.1,14.4a15.55,15.55,0,0,1,12.5,15.4C270.74,172.5,263.74,179.8,250.64,179.8Zm-1-56.8h-14.2v22.2h14.5c8.4,0,13.1-4.3,13.1-11.2C263,127.3,258.54,123,249.64,123Zm.3,27.3h-14.6v24.2h14.8c9,0,14.3-4.5,14.3-12S258.84,150.3,249.94,150.3Z" style="fill: #6b6b6b"/>
      <path d="M283,117.7h6.2v62H283Z" style="fill: #6b6b6b"/>
      <path d="M331.64,180.4c-17.4,0-30.7-13-30.7-31.7,0-18.5,13.3-31.7,30.7-31.7s30.7,13.1,30.7,31.7S349.14,180.4,331.64,180.4Zm0-5.4c13.8,0,24.3-10,24.3-26.3s-10.6-26.2-24.3-26.2-24.3,9.9-24.3,26.2S317.94,175,331.64,175Z" style="fill: #6b6b6b"/>
      <path d="M391.64,180.4c-12.4,0-20.6-7.1-20.9-16.6h6.6c.5,5.1,4.3,11.4,14.4,11.4,8.6,0,13.7-5.1,13.7-11.4,0-18.3-34.1-6.7-34.1-30.1,0-9.6,7.9-16.6,19.9-16.6,11.8,0,18.9,6.6,20,15.1h-6.7c-.7-4.3-4.9-9.7-13.5-9.8-7.3-.1-13.3,3.9-13.3,11.1,0,17.9,34.1,6.9,34.1,30C411.64,171.9,404.84,180.4,391.64,180.4Z" style="fill: #6b6b6b"/>
      <path d="M450.24,117c13.8,0,24.1,6.9,28.6,18.8h-7.3c-3.5-8.3-10.7-13.4-21.3-13.4-13.6,0-24,10-24,26.3s10.4,26.2,24,26.2c10.6,0,17.8-5.1,21.3-13.2h7.3c-4.4,11.7-14.7,18.6-28.6,18.6-17.2,0-30.4-13-30.4-31.6S432.94,117,450.24,117Z" style="fill: #6b6b6b"/>
      <path d="M490.54,117.7h6.2v62h-6.2Z" style="fill: #6b6b6b"/>
      <path d="M543.84,122.8h-26.2V146h23.5v5.1h-23.5v23.5h26.2v5.1h-32.4V117.6h32.4Z" style="fill: #6b6b6b"/>
      <path d="M601,117.7v62h-6.2l-34.3-52.1v52.2h-6.2v-62h6.2l34.3,52.1V117.8H601Z" style="fill: #6b6b6b"/>
      <path d="M643,117c13.8,0,24.1,6.9,28.6,18.8h-7.3c-3.5-8.3-10.7-13.4-21.3-13.4-13.6,0-24,10-24,26.3s10.4,26.2,24,26.2c10.6,0,17.8-5.1,21.3-13.2h7.3c-4.4,11.7-14.7,18.6-28.6,18.6-17.2,0-30.4-13-30.4-31.6S625.84,117,643,117Z" style="fill: #6b6b6b"/>
      <path d="M715.54,122.8h-26.2V146h23.5v5.1h-23.5v23.5h26.2v5.1h-32.4V117.6h32.4Z" style="fill: #6b6b6b"/>
      <path d="M743.74,180.4c-12.4,0-20.6-7.1-20.9-16.6h6.6c.5,5.1,4.3,11.4,14.4,11.4,8.6,0,13.7-5.1,13.7-11.4,0-18.3-34.1-6.7-34.1-30.1,0-9.6,7.9-16.6,19.9-16.6,11.8,0,18.9,6.6,20,15.1h-6.7c-.7-4.3-4.9-9.7-13.5-9.8-7.3-.1-13.3,3.9-13.3,11.1,0,17.9,34.1,6.9,34.1,30C763.74,171.9,756.84,180.4,743.74,180.4Z" style="fill: #6b6b6b"/>
    </g>
    <path d="M306.74,16.3v86.1h-21l-35.1-53.1v53.1h-21V16.3h21l35.1,53.4V16.3Zm66.4,16.9h-31.8V50.6h28.1V66.8h-28.1V85.7h31.8v16.8h-52.8V16.4h52.8Zm14.5-16.9h21V67.9c0,10.2,5,16.1,15,16.1s15.2-5.9,15.2-16.1V16.4h21V67.8c0,23.8-16.7,35.6-36.6,35.6s-35.6-11.8-35.6-35.6V16.3Zm119.2,0c21.1,0,31.7,12.1,31.7,27.1,0,10.8-5.9,21-19.1,24.9l19.9,34.1h-23.7l-17.9-32.5h-5v32.5h-21V16.3Zm-1.2,17.5h-13V55.1h13c7.9,0,11.5-4,11.5-10.8C517.14,37.9,513.54,33.8,505.64,33.8Zm83.3,69.5c-24.4,0-44.3-18.3-44.3-44.2s19.9-44,44.3-44,44,18.2,44,44S613.34,103.3,588.94,103.3Zm0-19.1c13.7,0,22.7-9.9,22.7-25,0-15.3-9-25-22.7-25-14,0-22.8,9.7-22.8,25C566.14,74.3,574.94,84.2,588.94,84.2Zm93.5-49.7c8,0,14.5,3.7,18,11h23.1c-4.9-18.6-20.4-30.2-40.9-30.2-25.4,0-43.3,18.2-43.3,43.9s17.9,43.8,43.3,43.8c20.5,0,35.9-11.4,40.9-30.1h-23c-3.6,7.4-10.1,11-18,11-12.9,0-21.7-9.6-21.7-24.8C660.74,44.1,669.54,34.5,682.44,34.5Zm118.7,9c0-15-10.6-27.1-31.7-27.1h-35.2v86.1h21V70h5l17.9,32.5h23.7l-19.9-34.1C795.24,64.4,801.14,54.3,801.14,43.5Zm-32.9,11.6h-13V33.8h13c7.9,0,11.5,4.2,11.5,10.6C779.74,51.1,776,55.1,768.24,55.1Zm46.7,47.4h21V16.4h-21Zm89.3-32.8-35.1-53.4h-21v86.1h21V49.3l35.1,53.1h21V16.3h-21ZM938,102.5h52.8V85.7H959V66.8h28.1V50.6H959V33.2h31.8V16.4H938Z" style="fill: url(#linear-gradient)"/>
    <g>
      <path d="M113.24,184.7c64.4-11.9,105.2-106.2,34.2-139.2-26-11.8-68.7-3.3-75,28.2,88.6-22.6,84.1,84.9,22.5,107.5a66.32,66.32,0,0,1-15.8,3.7c-1.3.1-2.7.3-4,.3A92.33,92.33,0,0,0,113.24,184.7Z" style="fill: url(#linear-gradient-2)"/>
      <path d="M143.54,35.4a70,70,0,0,1,36.4,26.3,13,13,0,0,1,1,1.5C163.64,2.7,66.84-27.2,31.24,32.4c-23.8,36.2,8.3,101.7,54.4,88.8C35.34,72.5,84.14,18.5,143.54,35.4Z" style="fill: url(#linear-gradient-3)"/>
      <path d="M132.14,107.6a32.28,32.28,0,0,0-11.9-21.7c-26.7,94.8-130.3,20.7-99.6-49.7.6-1.3,1.2-2.5,1.8-3.8C-21.16,77.6.94,175.6,70,177.4,106.24,178.3,136.94,143.6,132.14,107.6Z" style="fill: url(#linear-gradient-4)"/>
    </g>
    <path d="M1001.14,24.9a9.6,9.6,0,1,1,19.2,0,9.32,9.32,0,0,1-9.6,9.7C1005.14,34.7,1001.14,30.5,1001.14,24.9Zm1.8,0c0,4.7,3.1,8.1,7.9,8.1s7.8-3.4,7.8-8.1-3.1-8.1-7.8-8.1S1002.94,20.2,1002.94,24.9Zm9.5.9,2.9,4.2h-2.5l-2.7-4.1H1009V30h-2.1V19.5h4.5c2.1,0,3.5,1.2,3.5,3.2A2.81,2.81,0,0,1,1012.44,25.8Zm-3.3-4.3v2.7h2.3c.9,0,1.6-.4,1.6-1.4s-.7-1.3-1.6-1.3Z" style="fill: #0bbab4"/>
  </g>
</svg>