<svg xmlns="http://www.w3.org/2000/svg" width="338" height="77" viewBox="0 0 338 77" role="img" aria-label="RESTFUL logo">
  <path fill="#4aa1e7" fill-rule="evenodd" d="M 21 63.5 L 21 51 L 11 51 L 1 51 L 1 45.476 L 1 39.952 L 17.75 40.226 L 34.5 40.5 L 34.782 52.25 L 35.063 64 L 46.032 64 L 57 64 L 57 70 L 57 76 L 39 76 L 21 76 L 21 63.5 Z M 43 44.523 L 43 32 L 33 32 L 23 32 L 23 26.5 L 23 21 L 39.468 21 L 55.937 21 L 56.218 32.75 L 56.5 44.5 L 67.799 44.783 L 79.098 45.066 L 78.799 50.783 L 78.5 56.5 L 60.75 56.773 L 43 57.046 L 43 44.523 Z M 199.5 55.494 C 195.087 53.929 192 50.799 192 47.889 C 192 45.115 199.022 45.204 200.768 48 C 202.269 50.404 207.66 50.711 210.559 48.559 C 213.658 46.257 211.229 43.748 204.093 41.879 C 195.988 39.756 193 36.964 193 31.513 C 193 28.234 193.614 26.786 195.953 24.545 C 199.454 21.191 207.125 19.981 212.022 22.009 C 215.577 23.482 219 27.468 219 30.135 C 219 32.914 212.477 32.761 210.971 29.946 C 210.082 28.285 209.069 27.95 205.686 28.196 C 202.26 28.445 201.444 28.896 201.189 30.682 C 200.829 33.217 202.764 34.501 208.518 35.545 C 214.395 36.611 217.566 38.539 218.953 41.887 C 221.403 47.802 217.862 54.032 210.917 56.024 C 206.453 57.304 204.326 57.205 199.5 55.494 Z M 289.014 55.976 C 287.097 55.525 284.285 53.764 282.764 52.062 C 280.035 49.007 280 48.799 280 35.484 L 280 22 L 283.395 22 L 286.789 22 L 287.146 34.09 C 287.479 45.37 287.661 46.307 289.862 48.09 C 293.015 50.642 296.182 50.499 298.826 47.686 C 300.802 45.582 301 44.307 301 33.686 L 301 22 L 305.098 22 L 309.196 22 L 308.848 35.436 C 308.503 48.741 308.471 48.901 305.557 51.942 C 302.805 54.813 297.435 57.114 294 56.892 C 293.175 56.839 290.931 56.426 289.014 55.976 Z M 134 39 L 134 22 L 144.077 22 C 153.881 22 154.233 22.079 157.077 24.923 C 161.03 28.876 161.197 35.424 157.458 39.868 L 154.915 42.889 L 157.958 48.916 C 159.631 52.231 161 55.207 161 55.529 C 161 55.851 159.088 55.977 156.75 55.807 C 152.687 55.514 152.368 55.247 149.5 49.753 C 146.956 44.879 146.082 44.005 143.75 44.003 C 141.055 44 141 44.121 141 50 L 141 56 L 137.5 56 L 134 56 L 134 39 Z M 165 39 L 165 22 L 176.5 22 L 188 22 L 188 25 L 188 28 L 180.5 28 L 173 28 L 173 32 L 173 36 L 180 36 L 187 36 L 187 39 L 187 42 L 180 42 L 173 42 L 173 46 L 173 50 L 180.5 50 L 188 50 L 188 53 L 188 56 L 176.5 56 L 165 56 L 165 39 Z M 231 42 L 231 28 L 226 28 C 221.111 28 221 27.933 221 25 L 221 22 L 235 22 L 249 22 L 249 25 C 249 27.933 248.889 28 244 28 L 239 28 L 239 42 L 239 56 L 235 56 L 231 56 L 231 42 Z M 253 39 L 253 22 L 264.5 22 L 276 22 L 276 25 L 276 28 L 268 28 L 260 28 L 260 32 L 260 36 L 267 36 L 274 36 L 274 39.5 L 274 43 L 267 43 L 260 43 L 260 49.5 L 260 56 L 256.5 56 L 253 56 L 253 39 Z M 314 39 L 314 22 L 318 22 L 322 22 L 322 36 L 322 50 L 329.5 50 L 337 50 L 337 53 L 337 56 L 325.5 56 L 314 56 L 314 39 Z M 150.066 36.965 C 152.258 35.792 152.701 31.101 150.8 29.2 C 150.14 28.54 147.665 28 145.3 28 L 141 28 L 141 32.333 C 141 34.717 141.3 36.967 141.667 37.333 C 142.688 38.354 147.896 38.126 150.066 36.965 Z M 65 24.523 L 65 12 L 55 12 L 45 12 L 45 6.5 L 45 1 L 61.468 1 L 77.937 1 L 78.218 12.75 L 78.5 24.5 L 89.799 24.783 L 101.098 25.066 L 100.799 30.783 L 100.5 36.5 L 82.75 36.773 L 65 37.046 L 65 24.523 Z"/>
</svg>
